<svg width="468" height="191" viewBox="0 0 468 191" fill="none" xmlns="http://www.w3.org/2000/svg">
<path fill-rule="evenodd" clip-rule="evenodd" d="M0.198192 0.198127C0.0891405 0.306845 0 43.2818 0 95.6981V191H234H468V95.5V0H234.198C105.607 0 0.306946 0.0891112 0.198192 0.198127ZM465.92 95.5V188.921H234H2.08V95.5V2.07932H234H465.92V95.5ZM17.6051 95.2748L17.68 173.326H31.7943H45.9086L46.0571 143.77C46.1389 127.514 46.3002 114.615 46.4158 115.105C46.5314 115.595 47.3768 119.605 48.2943 124.016C49.2119 128.427 50.4822 134.576 51.1172 137.68C51.7525 140.785 52.8189 145.931 53.4872 149.117C54.1558 152.302 54.8879 155.845 55.1144 156.988C55.3408 158.132 56.2037 162.319 57.0315 166.292C57.8597 170.266 58.5371 173.576 58.5371 173.649C58.5371 173.722 61.9712 173.746 66.1681 173.702L73.7993 173.623L74.1796 171.841C74.3891 170.86 76.0415 162.907 77.8517 154.166C79.6619 145.426 81.6124 136.002 82.1858 133.225C82.7596 130.447 83.698 125.903 84.2715 123.125C84.845 120.348 85.5403 117.073 85.8169 115.848C86.304 113.69 86.3248 114.566 86.4686 143.473L86.6171 173.326H113.36H140.103L140.731 169.167C141.077 166.88 141.593 163.438 141.878 161.518L142.396 158.028H153.507C159.617 158.028 164.622 158.061 164.628 158.102C164.634 158.143 165.138 161.585 165.749 165.751L166.858 173.326H193.892H220.926L221.002 148.003L221.078 122.68H222.8H224.523L225.202 124.833C225.576 126.018 227.663 132.467 229.839 139.166C232.016 145.864 235.419 156.324 237.402 162.409L241.007 173.474H254.812C262.405 173.474 268.617 173.418 268.617 173.349C268.617 173.28 267.425 169.571 265.967 165.106C264.51 160.641 261.693 151.976 259.707 145.849C257.722 139.723 255.558 133.039 254.9 130.997C254.241 128.955 252.712 124.274 251.502 120.596C250.293 116.918 249.303 113.682 249.303 113.405C249.303 113.128 249.949 112.245 250.738 111.443C251.527 110.642 253.112 108.732 254.259 107.199C255.406 105.665 257.034 103.26 257.877 101.852C258.719 100.445 260.004 98.019 260.733 96.4612C261.461 94.9035 262.61 91.9779 263.285 89.9601C263.961 87.9426 264.835 84.7152 265.228 82.7885C265.621 80.8616 266.098 77.6874 266.29 75.734C266.481 73.781 266.682 72.228 266.737 72.283C266.792 72.3379 267.361 75.7129 268.001 79.7828C268.642 83.8529 270.047 92.7969 271.125 99.6586C272.202 106.52 273.346 113.739 273.666 115.699C273.985 117.66 276.046 130.692 278.245 144.661C280.445 158.63 282.339 170.727 282.454 171.544C282.57 172.36 282.814 173.127 282.996 173.247C283.177 173.367 290.346 173.465 298.926 173.465C307.506 173.465 314.677 173.367 314.861 173.247C315.046 173.127 315.624 170.289 316.146 166.939C316.668 163.59 317.555 157.976 318.116 154.463C318.678 150.951 319.4 146.406 319.721 144.364C320.042 142.322 320.971 136.44 321.786 131.294C322.6 126.148 324.554 113.783 326.128 103.817C327.702 93.8514 329.101 84.9623 329.236 84.0638C329.372 83.1652 330.573 75.546 331.907 67.1322C333.24 58.7184 334.583 50.2303 334.89 48.2698C335.198 46.3093 335.788 42.5666 336.201 39.9526C336.615 37.3386 337.353 32.6601 337.843 29.556C338.333 26.4519 338.769 23.7785 338.812 23.6151C338.855 23.4517 338.957 57.0698 339.039 98.3219L339.189 173.326L364.966 173.402L390.743 173.478V157.587V141.697L378.931 141.62L367.12 141.542V126.838V112.135L378.931 112.057L390.743 111.979V96.0941V80.209L378.931 80.1312L367.12 80.0537V64.9044V49.7551L378.931 49.6775L390.743 49.5997V33.4143V17.2286H351.588H312.434L310.392 30.2243C309.269 37.3721 307.833 46.495 307.201 50.4977C306.569 54.5004 305.652 60.315 305.164 63.4191C304.676 66.5233 303.404 74.5435 302.338 81.2418C301.271 87.9402 300.112 95.3298 299.761 97.6631C299.41 99.9964 299.036 101.801 298.93 101.673C298.823 101.545 298.161 97.765 297.458 93.2722C296.755 88.7794 296.004 83.9672 295.791 82.5785C295.577 81.1899 294.247 72.7686 292.834 63.8647C291.422 54.9608 290.003 46.0049 289.681 43.9627C289.36 41.9205 288.91 39.0466 288.681 37.5762C288.453 36.1058 287.866 32.3631 287.376 29.2589C286.887 26.1548 286.26 22.1783 285.983 20.4219L285.48 17.2286H271.849C261.672 17.2286 258.217 17.3162 258.217 17.5747C258.217 17.7651 258.82 21.7416 259.556 26.4118C260.293 31.0819 261.237 37.0157 261.655 39.5985C262.073 42.181 262.368 44.4368 262.309 44.6114C262.251 44.7864 261.836 43.9939 261.388 42.8511C260.939 41.7081 259.741 39.3184 258.726 37.5409C257.711 35.763 256.078 33.2393 255.098 31.9323C254.118 30.6254 252.086 28.3429 250.582 26.8603C249.079 25.3775 246.605 23.2753 245.084 22.189C243.564 21.1024 241.01 19.5417 239.409 18.721L236.497 17.2286H214.82H193.143L193.11 92.6038L193.077 167.979L191.948 160.256C191.327 156.008 189.134 140.837 187.074 126.541C185.015 112.246 182.465 94.5346 181.408 87.1827C180.351 79.8309 177.679 61.2566 175.469 45.9068C173.26 30.557 171.451 17.8239 171.451 17.6109C171.451 17.2963 168.099 17.2384 153.549 17.3005L135.646 17.3771L135.003 21.8328C134.65 24.2834 132.543 38.9203 130.322 54.3593C128.101 69.7982 125.08 90.7844 123.608 100.995C122.137 111.206 119.665 128.45 118.115 139.314C116.564 150.179 115.175 159.469 115.027 159.959C114.864 160.497 114.746 132.427 114.727 89.0393L114.697 17.2286H96.8686C87.0629 17.2286 79.04 17.2836 79.04 17.351C79.04 17.4181 78.2288 21.7957 77.2372 27.0792C76.246 32.3625 74.8357 39.8932 74.1039 43.8142C73.372 47.7351 72.5846 51.9458 72.354 53.1711C72.1234 54.3964 71.267 59.008 70.4508 63.4191C69.6345 67.8303 68.4243 74.3801 67.7616 77.9743C67.0987 81.5686 66.4435 84.7764 66.3056 85.1028C66.1178 85.5466 65.9262 84.9843 65.5458 82.875C65.2659 81.3232 64.7855 78.717 64.4779 77.0832C64.1704 75.4495 63.443 71.573 62.8615 68.4689C62.2799 65.3648 61.1318 59.2159 60.3102 54.8048C59.4889 50.3937 58.5571 45.3811 58.24 43.6656C57.9227 41.9502 57.1875 38.0069 56.6066 34.9028C56.0254 31.7987 55.2118 27.4544 54.7985 25.2488C54.3852 23.0433 53.8821 20.3699 53.6809 19.3079L53.3149 17.3771L35.4224 17.3005L17.5302 17.2239L17.6051 95.2748ZM400.152 17.4267C400.043 17.5355 399.954 52.6097 399.954 95.3693C399.954 165.988 399.997 173.13 400.424 173.294C400.683 173.393 411.919 173.474 425.394 173.474C448.447 173.474 449.905 173.444 450.106 172.955C450.224 172.669 450.32 165.618 450.32 157.285V142.136L438.434 141.988L426.549 141.839L426.474 79.5338L426.399 17.2286H413.374C406.211 17.2286 400.261 17.3177 400.152 17.4267ZM225.68 47.2614C226.661 47.5623 228.314 48.3132 229.356 48.9305C230.397 49.5474 231.934 50.7983 232.773 51.7105C233.611 52.6224 234.805 54.3209 235.425 55.4845C236.046 56.648 236.867 58.8426 237.251 60.3611C237.635 61.8796 238.042 64.5256 238.156 66.2411C238.278 68.0925 238.224 70.5981 238.023 72.4065C237.837 74.0819 237.414 76.4879 237.083 77.7533C236.752 79.0184 236.008 81.014 235.428 82.1876C234.849 83.3616 233.689 85.1358 232.85 86.1306C232.012 87.1254 230.593 88.4838 229.698 89.1492C228.802 89.8146 227.598 90.5997 227.022 90.8934C226.445 91.1875 225.116 91.7094 224.069 92.0531C223.021 92.3968 221.919 92.6781 221.62 92.6781C221.095 92.6781 221.074 91.7843 221.074 69.4904V46.3025L222.486 46.5084C223.262 46.6215 224.699 46.9602 225.68 47.2614ZM153.93 83.5124C154.079 84.5509 155.608 95.1851 157.329 107.144C159.05 119.103 160.457 128.962 160.457 129.051C160.457 129.141 157.3 129.215 153.441 129.215H146.425L146.606 128.249C146.706 127.718 148.259 117.018 150.057 104.47C151.855 91.9233 153.326 81.5748 153.326 81.4741C153.326 81.3737 153.401 81.3663 153.492 81.4578C153.584 81.5493 153.781 82.474 153.93 83.5124Z" fill="white"/>
</svg>
