<svg width="199" height="70" viewBox="0 0 199 70" fill="none" xmlns="http://www.w3.org/2000/svg">
<path d="M172.801 12.7665V0.00999602H136.477L130.497 42.6103L124.589 0.00999602H111.489L112.953 11.3854C111.443 8.4699 106.083 0.00999602 94.2793 0.00999602C94.2008 0.00499805 81.1641 0.00999602 81.1641 0.00999602L81.1098 62.1032L71.5641 0.00999602L54.4061 0.00499801L44.5293 64.3402L44.5348 0.00999602H28.1109L22.1922 36.1487L16.4265 0.00999602H0V69.9534H12.9363V36.2403L18.8215 69.9534H25.6976L31.4997 36.2403V69.9534H56.4366L57.9445 59.1952H67.9841L69.492 69.9534L93.9766 69.9688H93.9944V69.9534H94.025V47.2525L97.0231 46.826L103.237 69.9688H115.902L115.897 69.9534H115.933L107.779 42.8352C111.908 39.8451 116.574 32.2649 115.333 25.0099V25.0074C115.348 25.1015 123.031 70 123.031 70L138.091 69.9542L148.381 6.56193V69.9542H172.8V57.3764H161.211V41.3383H172.8V28.5684H161.211V12.7665H172.801ZM59.4682 48.1068L63.0228 18.2014L66.7058 48.1068H59.4682ZM97.0646 34.2978C96.0712 34.7655 95.037 34.9996 94.025 35.0021V12.507C94.0406 12.507 94.0644 12.5045 94.0898 12.5045C95.0985 12.497 102.652 12.8019 102.652 23.6288C102.652 29.2923 100.084 32.8642 97.0646 34.2978ZM198.861 57.3647V69.9379H175.036V0H187.866V57.3647H198.861Z" fill="white"/>
</svg>
